<?xml version="1.0" encoding="UTF-8"?>
<svg xmlns="http://www.w3.org/2000/svg" viewBox="0 0 128 128" width="128" height="128">
  <!-- Definitions for gradients and effects -->
  <defs>
    <!-- Bold vibrant gradient -->
    <linearGradient id="mainGradient" x1="0%" y1="0%" x2="100%" y2="100%">
      <stop offset="0%" style="stop-color:#00F5FF;stop-opacity:1" />
      <stop offset="50%" style="stop-color:#FF00FF;stop-opacity:1" />
      <stop offset="100%" style="stop-color:#FF1493;stop-opacity:1" />
    </linearGradient>

    <!-- Dark gradient for contrast -->
    <linearGradient id="darkGradient" x1="0%" y1="0%" x2="100%" y2="100%">
      <stop offset="0%" style="stop-color:#1a1a2e;stop-opacity:1" />
      <stop offset="100%" style="stop-color:#16213e;stop-opacity:1" />
    </linearGradient>

    <!-- Strong glow effect -->
    <filter id="strongGlow">
      <feGaussianBlur stdDeviation="8" result="coloredBlur"/>
      <feMerge>
        <feMergeNode in="coloredBlur"/>
        <feMergeNode in="SourceGraphic"/>
      </feMerge>
    </filter>

    <!-- Shadow filter -->
    <filter id="shadow" x="-50%" y="-50%" width="200%" height="200%">
      <feDropShadow dx="0" dy="6" stdDeviation="8" flood-color="#000000" flood-opacity="0.4"/>
    </filter>

    <!-- Inner glow -->
    <filter id="innerGlow">
      <feGaussianBlur stdDeviation="3" result="blur"/>
      <feComposite in="blur" in2="SourceGraphic" operator="out"/>
      <feFlood flood-color="#00F5FF" flood-opacity="0.5"/>
      <feComposite operator="in" in2="blur"/>
      <feMerge>
        <feMergeNode/>
        <feMergeNode in="SourceGraphic"/>
      </feMerge>
    </filter>
  </defs>

  <!-- Dark background circle for contrast -->
  <circle cx="64" cy="64" r="60" fill="url(#darkGradient)"/>

  <!-- Glowing hexagon frame -->
  <path d="M 64 4 L 110 32 L 110 96 L 64 124 L 18 96 L 18 32 Z"
        fill="none"
        stroke="url(#mainGradient)"
        stroke-width="4"
        filter="url(#strongGlow)"/>

  <!-- Inner hexagon with fill -->
  <path d="M 64 12 L 102 36 L 102 92 L 64 116 L 26 92 L 26 36 Z"
        fill="url(#darkGradient)"
        stroke="url(#mainGradient)"
        stroke-width="2"
        opacity="0.9"/>

  <!-- Tech circuit nodes -->
  <g>
    <circle cx="64" cy="12" r="5" fill="#00F5FF" filter="url(#strongGlow)"/>
    <circle cx="102" cy="36" r="5" fill="#FF00FF" filter="url(#strongGlow)"/>
    <circle cx="102" cy="92" r="5" fill="#FF1493" filter="url(#strongGlow)"/>
    <circle cx="64" cy="116" r="5" fill="#00F5FF" filter="url(#strongGlow)"/>
    <circle cx="26" cy="92" r="5" fill="#FF00FF" filter="url(#strongGlow)"/>
    <circle cx="26" cy="36" r="5" fill="#FF1493" filter="url(#strongGlow)"/>
  </g>

  <!-- Bold R letter with strong presence -->
  <g filter="url(#shadow)">
    <!-- R background glow -->
    <path d="M 42 32 L 42 96 M 42 32 L 74 32 Q 90 32 90 50 T 74 68 L 42 68 M 68 68 L 90 96"
          fill="none"
          stroke="url(#mainGradient)"
          stroke-width="12"
          stroke-linecap="round"
          stroke-linejoin="round"
          opacity="0.5"
          filter="url(#strongGlow)"/>

    <!-- Main R letter -->
    <path d="M 42 32 L 42 96 M 42 32 L 74 32 Q 90 32 90 50 T 74 68 L 42 68 M 68 68 L 90 96"
          fill="none"
          stroke="#FFFFFF"
          stroke-width="8"
          stroke-linecap="round"
          stroke-linejoin="round"/>

    <!-- R accent highlight -->
    <path d="M 42 32 L 42 96 M 42 32 L 74 32 Q 90 32 90 50 T 74 68 L 42 68 M 68 68 L 90 96"
          fill="none"
          stroke="url(#mainGradient)"
          stroke-width="3"
          stroke-linecap="round"
          stroke-linejoin="round"
          opacity="0.9"/>
  </g>

  <!-- Energy lines -->
  <g opacity="0.8">
    <line x1="64" y1="12" x2="102" y2="36" stroke="url(#mainGradient)" stroke-width="2" filter="url(#strongGlow)"/>
    <line x1="102" y1="36" x2="102" y2="92" stroke="url(#mainGradient)" stroke-width="2" filter="url(#strongGlow)"/>
    <line x1="102" y1="92" x2="64" y2="116" stroke="url(#mainGradient)" stroke-width="2" filter="url(#strongGlow)"/>
    <line x1="64" y1="116" x2="26" y2="92" stroke="url(#mainGradient)" stroke-width="2" filter="url(#strongGlow)"/>
    <line x1="26" y1="92" x2="26" y2="36" stroke="url(#mainGradient)" stroke-width="2" filter="url(#strongGlow)"/>
    <line x1="26" y1="36" x2="64" y2="12" stroke="url(#mainGradient)" stroke-width="2" filter="url(#strongGlow)"/>
  </g>

  <!-- Additional sci-fi elements -->
  <circle cx="64" cy="64" r="54" fill="none" stroke="url(#mainGradient)" stroke-width="0.5" opacity="0.6" stroke-dasharray="5,10"/>
  <circle cx="64" cy="64" r="48" fill="none" stroke="url(#mainGradient)" stroke-width="0.5" opacity="0.4" stroke-dasharray="10,5"/>
</svg>